<svg width="253" height="66" viewBox="0 0 253 66" fill="none" xmlns="http://www.w3.org/2000/svg">
<path d="M63.5661 20.9804C64.6126 17.9625 65.6782 14.3913 65.927 13.04C66.9926 7.29065 65.1836 2.81212 60.9786 0.79485C59.7886 0.225382 59.0388 0.0806021 56.914 0.0130381C55.2964 -0.0384393 53.8703 0.0645154 53.1492 0.286512C50.297 1.16484 48.2966 2.81212 46.9247 5.41816C45.3358 8.43602 45.138 9.92243 44.937 20.4946C44.7583 29.8989 44.736 30.1498 44.1267 30.7161C43.4056 31.3885 42.1964 31.2662 41.8583 30.4876C41.7434 30.227 41.67 26.9775 41.6923 23.2647C41.7498 13.9634 41.2106 11.3574 38.7699 9.17922C37.6181 8.14968 36.0069 7.47725 34.6988 7.48047C33.4546 7.48369 31.0522 8.55506 30.0919 9.53635C27.0673 12.6186 25.0796 19.1144 24.6489 27.3153C24.349 33.0583 23.8194 34.4675 21.9625 34.4675C20.6162 34.4675 20.1663 33.1194 20.3865 29.7444C20.5588 27.103 20.9256 25.2241 22.4475 19.2205C23.478 15.1506 23.7396 10.3664 23.0537 8.16255C21.6977 3.81915 18.9284 1.32571 14.4586 0.434509C9.70165 -0.517822 4.40867 1.65066 2.42102 5.36347C0.25789 9.398 0.0664507 16.5566 1.91053 24.3522C3.70038 31.9065 3.65891 31.0475 3.03358 47.562C2.88682 51.4132 2.94744 52.935 3.31434 54.8976C4.38953 60.6244 6.45693 63.4524 10.7226 65.0225C12.0179 65.4987 12.9463 65.6177 15.5178 65.6274C18.536 65.6434 18.8072 65.5952 20.5843 64.7812C23.762 63.3205 26.0272 60.8528 27.6192 57.1207C28.4839 55.0874 29.2623 51.307 29.2719 49.0806C29.2815 46.9507 29.7696 44.0294 30.2705 43.1285C30.781 42.2084 31.502 41.9027 32.0922 42.3596C32.5485 42.7103 32.5453 42.8615 31.9104 50.6668C31.5882 54.6498 31.971 57.954 32.9888 59.9809C35.9655 65.9073 44.3372 67.6253 50.2938 63.5361C52.2974 62.1591 53.3407 60.9494 54.636 58.501C56.512 54.9523 56.9204 53.1344 59.0739 38.7948C60.1045 31.9322 61.001 28.3738 63.5693 20.9868L63.5661 20.9804Z" fill="white"/>
<path d="M209.418 2.16844C207.66 0.92011 204.986 0.347424 202.785 0.752808C199.157 1.4188 196.321 4.01519 194.901 7.97573C193.43 12.0778 193.028 19.6032 193.906 26.588C194.547 31.6939 194.33 37.7811 193.3 43.6431C192.642 47.3752 192.54 48.6428 192.661 51.4677C193.057 60.7336 196.41 65.3569 202.995 65.7076C205.934 65.8652 207.937 65.1703 209.743 63.3686C213.581 59.5432 214.551 53.6908 213.16 42.7519C212.394 36.729 212.388 32.3856 213.138 26.3692C215.049 11.0193 214.213 5.57238 209.418 2.16522V2.16844Z" fill="white"/>
<path d="M180.436 27.5694C185.343 23.5477 188.329 19.7931 189.867 15.7135C190.565 13.8571 190.68 13.1429 190.683 10.5883C190.69 5.60464 189.375 2.99538 186.064 1.41567C184.488 0.662811 184.13 0.604899 181.3 0.604899C178.47 0.604899 178.097 0.675681 176.792 1.32558C175.337 2.04948 173.503 3.66137 172.354 5.22821C171.228 6.76609 169.955 10.1958 169.074 14.0598C168.002 18.7764 167.141 20.71 166.117 20.71C165.188 20.71 165.118 20.3111 165.549 17.4702C166.028 14.3107 166.008 9.87404 165.504 7.6573C164.783 4.48179 163.083 2.28435 160.377 1.02315C158.785 0.283166 158.339 0.199515 155.974 0.20595C153.859 0.212385 153.004 0.341078 151.629 0.868721C148.636 2.01731 146.566 4.42388 145.478 8.02407C145.025 9.52979 144.951 10.7781 144.964 16.7945C144.98 23.0008 145.079 24.4807 145.832 29.6124C146.674 35.3521 146.681 35.5323 146.61 46.6128C146.54 57.2975 146.566 57.8992 147.14 59.6816C147.657 61.2838 147.998 61.7857 149.53 63.211C151.664 65.1961 153.186 65.7752 156.287 65.7752C161.634 65.7752 165.099 62.7574 165.992 57.3201C166.385 54.9392 166.024 50.4511 165.112 46.3425C164.557 43.8491 164.662 42.7552 165.466 42.6104C166.991 42.3369 168.095 45.1553 168.679 50.8178C169.154 55.4476 169.4 56.609 170.43 59.2054C172.319 63.951 176.221 66.4155 181.096 65.9425C184.886 65.5725 188.112 63.3333 189.414 60.161C190.265 58.089 190.479 53.9515 189.873 51.2876C188.641 45.8889 186.379 42.7713 179.756 37.3469C178.518 36.3334 177.248 35.0336 176.933 34.4577C175.691 32.1895 176.33 30.9347 180.439 27.5694H180.436Z" fill="white"/>
<path d="M238.145 20.9643C239.558 20.2082 239.775 20.1728 243.224 20.1728C246.267 20.1728 247.014 20.0827 248.06 19.613C249.605 18.9181 250.922 17.5346 251.899 15.5946C252.572 14.2529 252.652 13.7735 252.652 10.9938C252.652 8.21399 252.585 7.76356 251.848 6.36402C250.402 3.62285 247.697 1.93054 243.485 1.1262C241 0.653253 232.134 0.389432 230.143 0.727252C223.778 1.81471 219.984 5.17361 218.313 11.2061C217.585 13.8347 217.113 21.9456 217.362 27.5888C217.461 29.8152 217.387 34.0653 217.199 37.0349C216.679 45.2777 216.765 51.9022 217.432 54.8653C218.743 60.6919 221.653 63.6197 227.606 65.0997C230.376 65.7882 237.746 65.9652 240.86 65.415C247.247 64.2921 251.28 60.412 251.583 55.1067C251.819 50.9434 250.453 47.7743 247.754 46.2204C246.497 45.4965 246.073 45.4 244.133 45.4C242.927 45.4 241.15 45.5705 240.186 45.7796C238.097 46.2332 237.088 46.0466 235.965 45.001C234.383 43.5242 235.117 41.4137 237.573 40.3841C238.591 39.9562 239.236 39.9112 242.244 40.0527C246.44 40.249 247.457 40.0013 249.209 38.3701C250.839 36.8515 251.471 34.9307 251.289 32.0641C251.098 29.0559 249.892 27.2059 247.298 25.9415C246.452 25.5297 245.581 25.446 242.037 25.4396C238.176 25.4332 237.714 25.3785 236.97 24.8637C235.391 23.7666 235.87 22.1837 238.151 20.9643H238.145Z" fill="white"/>
<path d="M139.802 44.5505C138.427 43.8942 137.865 43.8041 134.043 43.6433C130.381 43.4888 129.615 43.3762 128.396 42.8132C126.035 41.7225 125.107 39.8983 125.107 36.327C125.107 33.2513 125.774 30.2913 127.717 24.7607C131.536 13.9054 131.88 7.92119 128.922 3.91239C127.854 2.46459 125.837 1.15192 123.837 0.59532C121.884 0.0548078 118.652 0.103068 116.805 0.695057C112.993 1.92408 110.679 5.16394 109.738 10.5916C109.464 12.1713 109.438 14.6744 109.63 20.9417C109.911 30.1369 109.949 39.361 109.748 48.5014C109.63 53.8293 109.681 54.8042 110.153 56.4611C111.643 61.6796 114.645 64.2825 120.436 65.3764C122.347 65.7367 123.898 65.8043 127.956 65.7077C133.692 65.5694 135.836 65.119 138.577 63.4878C143.12 60.7788 145.264 54.4181 143.5 48.8779C142.871 46.9056 141.585 45.3999 139.802 44.5473V44.5505Z" fill="white"/>
<path d="M104.841 19.9089C103.89 15.5655 102.876 12.6377 101.21 9.45258C98.0645 3.42973 94.102 0.817254 87.4467 0.379696C86.263 0.30248 84.6423 0.334653 83.8447 0.453695C78.7272 1.2162 75.055 3.31069 72.442 6.95915C70.9265 9.07615 70.2916 10.7041 68.7634 16.4406C68.0615 19.066 66.6992 23.4995 65.7357 26.2921C62.81 34.7634 61.6997 39.5733 61.0935 46.3908C61.0489 46.8991 61.0138 47.401 60.9851 47.8901C60.9181 49.1384 62.0219 50.1133 63.2407 49.888C65.7069 49.4312 68.6389 49.0869 71.9347 49.0869C74.7487 49.0869 77.2979 49.3379 79.5184 49.695C80.6797 49.8816 81.723 48.9808 81.7262 47.7936C81.7326 46.3683 81.9719 45.3773 82.4409 44.7854C83.7936 43.093 85.8611 43.4469 86.5534 45.4867C86.7703 46.1173 86.8437 46.5388 86.7225 47.5169C86.5662 48.7716 87.6509 49.8301 88.8888 49.6403C91.0264 49.3121 93.4575 49.0869 96.1279 49.0869C99.2993 49.0869 102.129 49.4054 104.535 49.8333C105.687 50.0393 106.749 49.1706 106.778 47.993C106.778 47.9834 106.778 47.9769 106.778 47.9673C106.991 37.0766 106.254 26.3854 104.838 19.9057L104.841 19.9089Z" fill="white"/>
<path d="M106.462 55.1355C106.487 54.8877 106.51 54.6336 106.532 54.3633C106.609 53.3917 105.945 52.5166 104.997 52.3267C102.563 51.8377 99.596 51.4548 96.2173 51.4548C92.6535 51.4548 89.546 51.8795 87.0383 52.4072C86.2598 52.5713 85.6568 53.2018 85.5452 53.9965C85.3155 55.6116 85.2804 58.0214 86.5885 60.2671C88.7516 63.9767 93.7478 65.4985 99.4556 65.4824C108.631 65.4567 112.374 60.2221 107.301 56.9211C106.711 56.535 106.392 55.8433 106.465 55.1355H106.462Z" fill="white"/>
<path d="M81.6433 54.9167C81.6688 54.669 81.6911 54.4148 81.7134 54.1446C81.79 53.1729 81.1264 52.2978 80.1789 52.108C77.7445 51.6189 74.7774 51.2361 71.3987 51.2361C67.9147 51.2361 64.871 51.6415 62.3921 52.153C61.486 52.3396 60.8447 53.16 60.8766 54.0931C60.9404 55.9527 61.4445 58.7325 62.7111 60.901C63.9043 63.5842 68.9293 65.2765 74.637 65.2604C83.8128 65.2347 87.5552 60.0001 82.4824 56.6991C81.8921 56.313 81.5731 55.6213 81.6465 54.9135L81.6433 54.9167Z" fill="white"/>
<path d="M96.6223 18.6553C96.6223 23.8957 92.6186 27.315 86.8914 27.315C81.1641 27.315 77.6391 23.8989 77.6391 18.6553C77.6391 13.4117 81.1641 7.85016 86.8914 7.85016C92.6186 7.85016 96.6223 13.4149 96.6223 18.6553Z" fill="#2750E0"/>
<path d="M87.3834 18.6282C87.8896 18.6282 88.2999 17.9485 88.2999 17.11C88.2999 16.2715 87.8896 15.5918 87.3834 15.5918C86.8773 15.5918 86.467 16.2715 86.467 17.11C86.467 17.9485 86.8773 18.6282 87.3834 18.6282Z" fill="white"/>
<path d="M92.5154 18.6282C93.0215 18.6282 93.4318 17.9485 93.4318 17.11C93.4318 16.2715 93.0215 15.5918 92.5154 15.5918C92.0093 15.5918 91.599 16.2715 91.599 17.11C91.599 17.9485 92.0093 18.6282 92.5154 18.6282Z" fill="white"/>
</svg>
